<svg width="1440" height="2195" viewBox="0 0 1440 2195" fill="none" xmlns="http://www.w3.org/2000/svg">
<path d="M1290.92 915.874L1322.07 1182.72L1369.08 1378.54L1435.71 1489.07" stroke="url(#paint0_radial_35_326)" stroke-linecap="round" stroke-linejoin="round"/>
<path d="M1003.45 822.651L1043.23 1055.87L1077.55 1316.2L1131.28 1487.13L1200.54 1589.82" stroke="url(#paint1_radial_35_326)" stroke-linecap="round" stroke-linejoin="round"/>
<path d="M909.235 913.712L951.124 1138.56L991.737 1371.23L1048.65 1528.81L1119.69 1624.48" stroke="url(#paint2_radial_35_326)" stroke-linecap="round" stroke-linejoin="round"/>
<path d="M1086.2 782.502L1128.52 1001.2L1162.11 1262.43L1212.62 1446.24L1280.15 1555.72" stroke="url(#paint3_radial_35_326)" stroke-linecap="round" stroke-linejoin="round"/>
<path d="M651.701 993.51L695.509 1209.01L751.009 1368.54L813.269 1498.94L879.817 1612.94L954.11 1695.42L1037.56 1659.65L1119.69 1624.48L1200.55 1589.82L1280.15 1555.72L1358.52 1522.13L1435.71 1489.07L1511.74 1456.49L1586.63 1424.4" stroke="url(#paint4_radial_35_326)" stroke-linecap="round" stroke-linejoin="round"/>
<path d="M1299.28 564.105L1159.27 511.303L1083.39 542.212L1049.16 566.008L1001.09 599.437L906.711 711.988L828.293 697.239L725.804 810.245L633.67 880.049L556.399 906.393L478.024 933.09L398.501 960.177L317.855 987.707L236.005 1015.57L169.032 961.794L104.539 900.052L54.3556 762.982L-3.92273 675.451L-62.9939 597.347L-146.477 625.789L-236.354 685.743L-330.673 766.45L-422.011 823.43L-512.193 866.618L-572.873 804.815L-664.569 850.823L-725.89 799.797L-786.265 748.53L-846.45 702.16L-935.901 727.698" stroke="url(#paint5_radial_35_326)" stroke-linecap="round" stroke-linejoin="round"/>
<path d="M651.7 993.51L545.6 1131.35L439.126 1267.55L335.501 1384.64L234.491 1483.25L138.714 1548.15L45.8584 1590.16L-26.417 1526.67" stroke="url(#paint6_radial_35_326)" stroke-linecap="round" stroke-linejoin="round"/>
<path d="M1368.52 633.041L1389.41 688.724" stroke="url(#paint7_radial_35_326)" stroke-linecap="round" stroke-linejoin="round"/>
<path d="M735.214 965.45L798.17 1083.72L846.741 1276.63L904.911 1425.97L965.236 1568.83L1037.56 1659.65" stroke="url(#paint8_radial_35_326)" stroke-linecap="round" stroke-linejoin="round"/>
<path d="M1003.45 822.651L909.234 913.712L798.17 1083.72L695.508 1209.01L597.954 1304.42L500.99 1392.17L400.004 1495.65L303.609 1569.96L211.066 1617.83L138.715 1548.15L68.211 1475L-1.25794 1402.57L-71.138 1339.03L-142.134 1288.53L-236.919 1341.73" stroke="url(#paint9_radial_35_326)" stroke-linecap="round" stroke-linejoin="round"/>
<path d="M1511.74 1456.49L1443.1 1356.28L1391.06 1185.49L1351.59 960.12L1303.7 775.074L1269.34 735.461L1234.01 694.72L1156.8 654.862L1084.44 597.728L1001.1 599.438L917.334 610.081L912.833 614.399L906.999 620.063L831.147 693.405L826.463 696.884L818.11 704.844L721.846 793.432L642.637 803.59L566.478 829.017L489.213 854.796L410.901 880.985L345.416 825.423L265.226 855.589L184.702 881.963L104.54 900.053L20.1106 935.863L-63.9889 963.382L-149.344 991.32L-234.434 1010.77L-300.086 961.401L-362.051 895.714L-422.01 823.431L-481.103 751.317L-545.295 716.865L-634.783 756.837L-725.888 799.798L-816.617 832.45" stroke="url(#paint10_radial_35_326)" stroke-linecap="round" stroke-linejoin="round"/>
<path d="M642.636 803.587L731.261 710.023L820.238 652.208" stroke="url(#paint11_radial_35_326)" stroke-linecap="round" stroke-linejoin="round"/>
<path d="M651.837 918.023L725.804 810.241L818.109 704.839L826.795 696.944L831.146 693.4L906.998 620.058L917.333 610.076L971.106 577.849L997.623 561.948L1022.9 547.645L1076.33 517.336" stroke="url(#paint12_radial_35_326)" stroke-linecap="round" stroke-linejoin="round"/>
<path d="M-167.776 1402.48L-71.1376 1339.03L27.8909 1255.6L91.6729 1214.18L121.799 1194.63L152.177 1186.8L194.258 1175.99L207.468 1172.56L278.65 1146.07L295.723 1137.87L358.782 1114.25L385.47 1104.23" stroke="url(#paint13_radial_35_326)" stroke-linecap="round" stroke-linejoin="round"/>
<path d="M-97.591 1464.1L-1.25718 1402.57L104.556 1282.23" stroke="url(#paint14_radial_35_326)" stroke-linecap="round" stroke-linejoin="round"/>
<path d="M1733.1 1361.69L1659.86 1285.37L1588.58 1309.15L1516.26 1333.15L1443.1 1356.28L1369.08 1378.54L1292.86 1405.7L1212.62 1446.24L1131.28 1487.13L1048.65 1528.81L965.237 1568.83L879.818 1612.94L793.114 1657.8L706.04 1698.33L617.66 1739.18L541.242 1671.39L468.87 1589.53L400.006 1495.65L335.503 1384.63L274.446 1260.32L204.089 1191.4L121.8 1194.63L42.161 1191.16L-30.6716 1157.25L-103.682 1131.38L-170.277 1075.13L-234.434 1010.76L-323.865 1048.48L-388.477 993.228L-450.961 930.743L-540.635 963.128L-631.473 995.098" stroke="url(#paint15_radial_35_326)" stroke-linecap="round" stroke-linejoin="round"/>
<path d="M606.629 1844.26L528.498 1777.47L438.064 1815.37L346.154 1853.92L269.357 1786.49" stroke="url(#paint16_radial_35_326)" stroke-linecap="round" stroke-linejoin="round"/>
<path d="M1090.47 695.738L1161.85 770.757L1211.79 951.293L1245.73 1208.2L1292.86 1405.7L1358.52 1522.13" stroke="url(#paint17_radial_35_326)" stroke-linecap="round" stroke-linejoin="round"/>
<path d="M-305.03 1281.88L-211.99 1238.21L-119.084 1188.28L-30.6748 1157.25L50.7775 1158.15L112.883 1183.23" stroke="url(#paint18_radial_35_326)" stroke-linecap="round" stroke-linejoin="round"/>
<path d="M516.127 1883.05L424.158 1922.44L346.154 1853.93" stroke="url(#paint19_radial_35_326)" stroke-linecap="round" stroke-linejoin="round"/>
<path d="M-372.197 1222.87L-280.374 1186.18L-188.859 1143.96L-119.083 1188.28L-47.199 1227.43L42.1582 1191.16L124.331 1187.81L166.145 1180.16" stroke="url(#paint20_radial_35_326)" stroke-linecap="round" stroke-linejoin="round"/>
<path d="M45.8599 1590.16L119.226 1654.61L193.717 1720.04L285.508 1683.16L376.445 1643.56L451.653 1711.35L541.241 1671.39L631.35 1622.53L722.063 1564.67L813.269 1498.93L904.911 1425.97L991.737 1371.23L1077.55 1316.19L1162.11 1262.43L1245.73 1208.2L1322.07 1182.71L1391.06 1185.48L1458.65 1189.45L1526.22 1188.36L1593.68 1182.81L1660.93 1173.73L1730.07 1261.72L1804.75 1331" stroke="url(#paint21_radial_35_326)" stroke-linecap="round" stroke-linejoin="round"/>
<path d="M-755.743 885.938L-664.571 850.824L-602.955 906.202L-512.194 866.619L-450.964 930.747L-362.054 895.713L-270.656 838.603L-175.531 753.569L-87.5353 704.907L-3.9243 675.452L72.4588 680.744L152.531 658.483L233.04 628.095L305.706 634.554L326.689 679.214L358.677 747.294L422.916 803.937L500.117 778.664L576.255 753.704L651.354 729.11L731.259 710.025L816.491 630.198L878.948 618.393L906.939 602.73L909.463 600.766L918.42 596.464L967.352 575.285L997.621 561.952L1032.02 554.046L1083.39 542.213L1161.82 564.185L1233.32 553.71L1306.18 607.07L1368.52 633.046L1392.92 688.798L1411.42 733.59L1412.7 736.622L1470.41 859.817L1471.86 862.173L1478.87 871.982L1509.13 915.47L1519.78 930.752L1554.6 974.982L1586.38 1015.32L1645.49 1035.71L1718.82 1093.55L1784.19 1080.99L1859.58 1133.8" stroke="url(#paint22_radial_35_326)" stroke-linecap="round" stroke-linejoin="round"/>
<path d="M2013.45 1241.58L1936 1187.33L1868.85 1209.79L1799.8 1236.31L1730.07 1261.71L1659.86 1285.37L1593.68 1182.81L1531.74 1065.69L1470.22 1042.79L1420.15 873.418L1408.59 827.047L1376.02 696.605L1374.01 688.617L1306.18 607.066L1233.82 622.329L1161.82 564.181L1084.43 597.723L997.339 673.791L914.543 724.689L820.613 826.001L722.591 944.122L632.093 985.738L603.308 1010.12" stroke="url(#paint23_radial_35_326)" stroke-linecap="round" stroke-linejoin="round"/>
<path d="M-438.421 1164.71L-347.667 1134.43L-258.303 1104.53L-188.858 1143.97L-103.683 1131.38L-16.8577 1101.75L50.7793 1158.15L136.388 1128.38L220.741 1099.02L275.63 1143.65" stroke="url(#paint24_radial_35_326)" stroke-linecap="round" stroke-linejoin="round"/>
<path d="M-876.643 779.736L-786.264 748.527L-697.5 720.119L-634.784 756.833L-572.872 804.812L-481.104 751.313L-390.727 699.998L-300.419 642.629L-223.131 596.609L-211.838 589.881L-156.063 563.187L-143.267 557.081L-126.277 548.958L-92.2324 535.933L-60.8008 523.911L-43.3255 517.203L17.3078 581.027L72.4609 680.741L127.434 785.658L184.701 881.959L250.82 934.435L331.417 907.51L410.901 880.981L478.025 933.087L546.051 985.886L624.651 957.677L683.853 906.022" stroke="url(#paint25_radial_35_326)" stroke-linecap="round" stroke-linejoin="round"/>
<path d="M695.623 1806.13L606.63 1844.26L516.128 1883.04L438.065 1815.37L361.209 1748.77L269.358 1786.49L193.719 1720.04" stroke="url(#paint26_radial_35_326)" stroke-linecap="round" stroke-linejoin="round"/>
<path d="M783.171 1768.66L695.62 1806.13L617.658 1739.18L528.496 1777.47L451.652 1711.35L361.206 1748.77L285.507 1683.16L211.066 1617.83L119.225 1654.61" stroke="url(#paint27_radial_35_326)" stroke-linecap="round" stroke-linejoin="round"/>
<path d="M819.895 925.679L909.235 913.712" stroke="url(#paint28_radial_35_326)" stroke-linecap="round" stroke-linejoin="round"/>
<path d="M823.349 766.505L906.71 711.988L997.339 673.794L1081.1 676.319L1154.42 682.621L1165.3 683.553L1239.29 745.298L1290.92 915.874L1351.59 960.119L1410.01 1008.46L1470.21 1042.8L1474.95 1055.09L1526.21 1188.36L1588.58 1309.15L1660.4 1392.8" stroke="url(#paint29_radial_35_326)" stroke-linecap="round" stroke-linejoin="round"/>
<path d="M-846.449 702.157L-758.269 676.939L-697.499 720.118L-610.053 692.446L-545.295 716.861L-484.683 687.142L-456.301 673.206L-408.517 650.106L-368.58 630.768L-337.315 617.817L-283.078 595.308L-236.603 591.775L-211.837 589.881L-146.476 625.786L-87.5326 704.904L-37.8246 841.929L20.1103 935.859L86.0751 989.485L152.958 1043.9L220.742 1099.02L303.863 1070.13L385.771 1041.61L466.48 1013.58L546.051 985.886L599.764 997.586" stroke="url(#paint30_radial_35_326)" stroke-linecap="round" stroke-linejoin="round"/>
<path d="M732.678 852.82L734.208 851.701L823.353 766.498L914.546 724.686L1005.55 691.664L1090.47 695.733L1165.3 683.546L1234.01 694.712L1305.35 688.076L1374.02 688.614L1422.36 776.765L1470.42 859.809L1471.86 862.166L1482.74 883.722L1494.6 906.694L1497.41 912.148L1497.93 913.193L1525.66 967.045L1530.38 976.219L1594.65 1077.42L1656.57 1088.49L1718.83 1093.55L1793.21 1151.87L1859.58 1133.8L1936 1187.33" stroke="url(#paint31_radial_35_326)" stroke-linecap="round" stroke-linejoin="round"/>
<path d="M869.34 1731.73L783.172 1768.66L706.038 1698.33L631.349 1622.53L561.521 1528.27L500.99 1392.17L439.128 1267.55L385.469 1104.23" stroke="url(#paint32_radial_35_326)" stroke-linecap="round" stroke-linejoin="round"/>
<path d="M-758.271 676.941L-671.347 652.14L-610.054 692.448L-523.66 664.146L-498.984 655.768L-438.269 635.131L-405.391 624.381L-354.278 607.637L-283.08 595.31L-254.217 585.48L-233.049 578.262L-199.814 566.92L-168.764 559.355L-126.279 548.959L-62.9946 597.346L17.3065 581.029L94.4392 576.226L152.532 658.481L208.055 759.494L265.224 855.587L331.416 907.511L398.5 960.176L466.478 1013.58L502.346 1041.73" stroke="url(#paint33_radial_35_326)" stroke-linecap="round" stroke-linejoin="round"/>
<path d="M762.782 952.49L819.893 925.678L908.199 862.776L1003.45 822.65L1086.2 782.502" stroke="url(#paint34_radial_35_326)" stroke-linecap="round" stroke-linejoin="round"/>
<path d="M954.109 1695.42L869.34 1731.73L793.113 1657.8L722.062 1564.67L658.042 1442.1L597.953 1304.42L545.601 1131.35L475.543 1053.94L463.886 1059.52L463.542 1059.69L463.015 1059.91L456.918 1062.84L383.635 1097.84L354.744 1111.01L295.723 1137.88L278.649 1146.08L204.088 1191.4L196.976 1197.95L104.555 1282.23L27.8901 1255.6L-47.1981 1227.44L-142.134 1288.53L-211.989 1238.21L-280.373 1186.19L-347.668 1134.43L-413.065 1077.7L-477.588 1021.81L-540.637 963.131L-602.954 906.201L-694.038 940.152" stroke="url(#paint35_radial_35_326)" stroke-linecap="round" stroke-linejoin="round"/>
<path d="M-671.343 652.135L-585.658 627.66L-501.143 603.524L-417.801 579.727L-335.621 556.223L-254.547 533.071L-174.611 510.265L-95.729 487.725L-17.9097 465.499L58.8464 443.586L120.307 485.342L182.043 530.313L245.634 570.171L316.706 574.338L371.774 670.4L446.09 655.895L521.104 632.274L595.088 608.974L669.441 579.326L740.636 560.958L812.138 536.562L881.793 517.045L950.678 497.05L1015.48 542.427L1018.92 544.84" stroke="url(#paint36_radial_35_326)" stroke-linecap="round" stroke-linejoin="round"/>
<path d="M33.759 513.003L40.8637 520.376L94.4404 576.223L168.879 579.958L204.098 579.762L242.903 579.602L305.708 634.55L371.771 670.403L434.647 728.905L500.119 778.66L566.477 829.012L620.478 870.028" stroke="url(#paint37_radial_35_326)" stroke-linecap="round" stroke-linejoin="round"/>
<path d="M1290.92 915.873L1211.79 951.294L1128.52 1001.21L1043.23 1055.87L951.121 1138.56L846.738 1276.64L751.007 1368.54L658.04 1442.1L561.519 1528.27L468.867 1589.53L376.442 1643.56L303.607 1569.96L234.49 1483.25L168.752 1384.13L104.553 1282.23" stroke="url(#paint38_radial_35_326)" stroke-linecap="round" stroke-linejoin="round"/>
<path d="M345.414 825.42L422.916 803.935L489.211 854.793L556.399 906.392L608.725 945.715" stroke="url(#paint39_radial_35_326)" stroke-linecap="round" stroke-linejoin="round"/>
<path d="M58.8421 443.587L134.62 421.909L195.434 467.173L270.191 445.768L331.776 491.513L405.662 469.609L468.014 515.502L531.734 558.971L595.084 608.975L659.861 656.613L731.527 673.921L816.492 630.193L832.439 624.416L873.512 609.546L890.28 603.455L906.039 602.739" stroke="url(#paint40_radial_35_326)" stroke-linecap="round" stroke-linejoin="round"/>
<path d="M62.8901 524.225L104.177 540.12L173.258 567.545L242.903 579.6L258.784 578.435L316.703 574.339L386.524 584.776L457.198 584.76L521.101 632.276L585.823 680.375L651.356 729.104L731.528 673.921L809.085 627.764L871.792 608.975L890.281 603.455" stroke="url(#paint41_radial_35_326)" stroke-linecap="round" stroke-linejoin="round"/>
<path d="M134.619 421.912L209.401 400.559L270.191 445.772L344.031 424.283L405.662 469.612L478.57 447.943L550.556 426.566L612.966 471.621L676.181 517.163L740.632 560.962L809.094 589.258L871.791 608.979" stroke="url(#paint42_radial_35_326)" stroke-linecap="round" stroke-linejoin="round"/>
<path d="M209.402 400.557L283.196 379.485L344.032 424.281L416.927 403.034L488.858 382.12L550.558 426.565L621.59 405.475L684.055 450.069L754.18 428.851L823.425 407.886L886.669 452.207L950.675 497.053" stroke="url(#paint43_radial_35_326)" stroke-linecap="round" stroke-linejoin="round"/>
<path d="M283.195 379.487L356.035 358.702L416.926 403.037L478.57 447.944L540.967 493.421L604.16 539.431L669.437 579.332L737.148 611.493L809.084 627.769" stroke="url(#paint44_radial_35_326)" stroke-linecap="round" stroke-linejoin="round"/>
<path d="M1228.97 551.208L1299.28 564.1" stroke="url(#paint45_radial_35_326)" stroke-linecap="round" stroke-linejoin="round"/>
<path d="M356.035 358.702L427.93 338.157L488.858 382.122L559.886 361.41L621.59 405.478L691.701 384.682L754.179 428.854L817.463 473.323L886.669 452.21" stroke="url(#paint46_radial_35_326)" stroke-linecap="round" stroke-linejoin="round"/>
<path d="M427.928 338.155L498.901 317.904L559.884 361.408L629.983 341.034L699.179 320.862L760.932 364.138L823.423 407.887" stroke="url(#paint47_radial_35_326)" stroke-linecap="round" stroke-linejoin="round"/>
<path d="M-17.912 465.501L44.6867 500.682L108.818 532.244L143.771 551.393" stroke="url(#paint48_radial_35_326)" stroke-linecap="round" stroke-linejoin="round"/>
<path d="M-585.659 627.659L-523.658 664.139L-456.3 673.202L-390.726 699.993L-330.671 766.442L-270.652 838.595L-207.659 898.63L-124.879 886.097L-37.8238 841.925L54.3575 762.974L127.435 785.653L208.058 759.487L290.887 715.722L358.68 747.286L434.648 728.901L510.747 704.5L585.824 680.373L659.864 656.611L737.151 611.486L809.097 589.253L877.993 577.565L946.905 561.35L964.018 572.176" stroke="url(#paint49_radial_35_326)" stroke-linecap="round" stroke-linejoin="round"/>
<path d="M498.902 317.908L568.972 297.859L629.984 341.038L691.7 384.684L760.933 364.142" stroke="url(#paint50_radial_35_326)" stroke-linecap="round" stroke-linejoin="round"/>
<path d="M2013.45 1241.59L1944.86 1270.94L1875.31 1300.76L1804.75 1331L1733.1 1361.69L1660.4 1392.8L1586.63 1424.4L1516.26 1333.15L1458.65 1189.45L1413.58 1021.75L1410.01 1008.46L1408.54 1001.61L1366.54 806.192L1365.08 803.362L1305.35 688.082L1233.82 622.332L1156.8 654.861L1081.1 676.318L1005.55 691.67L913.194 783.989L813.078 910.765L762.784 952.492L735.214 965.452L688.71 981.061L651.701 993.511L607.684 1013.76L558.092 1036.55L508.974 1046.93L475.543 1053.94L465.304 1059.7L464.767 1059.97L463.953 1060.43L448.719 1068.94L385.47 1104.23L371.215 1124.26L274.446 1260.32L168.754 1384.13L68.2115 1475L-26.4155 1526.67L-97.5912 1464.1L-167.776 1402.48L-236.919 1341.73L-305.028 1281.88L-372.195 1222.88L-438.42 1164.72L-503.67 1107.4L-568.027 1050.83L-631.474 995.1L-694.037 940.152L-755.741 885.936L-816.618 832.448L-876.644 779.738L-935.901 727.697" stroke="url(#paint51_radial_35_326)" stroke-linecap="round" stroke-linejoin="round"/>
<path d="M-417.805 579.734L-354.277 607.639L-328.077 598.707L-271.204 579.353L-189.503 552.972L-139.428 538.905L-109.538 530.549L-46.1979 514.196L-30.9884 510.257L24.3842 503.26L44.6852 500.687L120.304 485.349L195.435 467.179L256.885 513.794L319.136 560.564L394.073 537.873L457.198 584.766L531.734 558.977L604.16 539.432L676.181 517.166L747.273 495.238L817.463 473.325L881.79 517.053L946.902 561.358L1015.48 542.434" stroke="url(#paint52_radial_35_326)" stroke-linecap="round" stroke-linejoin="round"/>
<path d="M568.974 297.853L638.157 278.104L699.182 320.861" stroke="url(#paint53_radial_35_326)" stroke-linecap="round" stroke-linejoin="round"/>
<path d="M-95.733 487.726L-30.9887 510.251L1.40917 514.793" stroke="url(#paint54_radial_35_326)" stroke-linecap="round" stroke-linejoin="round"/>
<path d="M189.906 1172.42L136.387 1128.38L68.6597 1072.62L1.89198 1017.61L-83.5538 1046.19L-149.347 991.319L-207.662 898.637" stroke="url(#paint55_radial_35_326)" stroke-linecap="round" stroke-linejoin="round"/>
<path d="M354.001 1110.39L303.862 1070.13L236.005 1015.57L152.957 1043.91L68.6611 1072.61L-16.8571 1101.75L-83.5523 1046.19L-170.278 1075.13L-258.303 1104.53L-323.866 1048.48L-413.064 1077.7L-503.67 1107.4" stroke="url(#paint56_radial_35_326)" stroke-linecap="round" stroke-linejoin="round"/>
<path d="M675.861 838.588L721.845 793.429L820.238 652.208L878.95 618.391" stroke="url(#paint57_radial_35_326)" stroke-linecap="round" stroke-linejoin="round"/>
<path d="M688.709 981.06L722.592 944.124L813.077 910.764L908.199 862.777L1006.39 747.189L1090.47 695.738" stroke="url(#paint58_radial_35_326)" stroke-linecap="round" stroke-linejoin="round"/>
<path d="M204.622 568.681L245.629 570.174L319.134 560.561L386.522 584.778L446.085 655.898L510.743 704.505L576.254 753.701L642.634 803.586" stroke="url(#paint59_radial_35_326)" stroke-linecap="round" stroke-linejoin="round"/>
<path d="M614.052 1006.4L632.093 985.741L709.108 883.978L732.675 852.827L734.697 850.954L826.794 696.948L836.207 684.239L896.999 614.959L906.94 602.73L909.464 600.766L918.42 596.464L963.319 572.567L964.015 572.183L987.214 560.026L1018.91 544.847L1076.33 517.339L1159.27 511.303L1228.96 551.212L1233.32 553.709L1299.28 564.105L1336.09 600.746L1368.52 633.046L1390.85 688.774L1401.92 722.166L1422.36 776.771L1433.35 806.513L1476.29 923.205L1484.42 944.134L1531.74 1065.69L1594.64 1077.43L1660.93 1173.73L1728.61 1158.32L1793.21 1151.88L1868.85 1209.79L1944.86 1270.94" stroke="url(#paint60_radial_35_326)" stroke-linecap="round" stroke-linejoin="round"/>
<path d="M457.642 1062.31L461.72 1059.28L462.882 1059.88" stroke="url(#paint61_radial_35_326)" stroke-linecap="round" stroke-linejoin="round"/>
<path d="M463.687 1059.48L461.72 1059.28L385.769 1041.62L317.855 987.705L250.819 934.437L169.032 961.793L86.0738 989.487L1.89269 1017.6L-63.9905 963.38L-124.881 886.103L-175.53 753.567L-236.354 685.742L-300.42 642.631L-368.582 630.77L-438.268 635.131L-501.147 603.529" stroke="url(#paint62_radial_35_326)" stroke-linecap="round" stroke-linejoin="round"/>
<path d="M733.741 852.51L820.616 826L913.196 783.986L1006.39 747.187L1086.21 782.501L1161.85 770.755L1239.3 745.294L1303.71 775.069L1366.54 806.189L1420.15 873.417L1476.29 923.201L1530.38 976.222L1586.38 1015.31L1609.61 1039.5L1656.57 1088.5L1728.62 1158.31L1799.8 1236.31L1875.31 1300.76" stroke="url(#paint63_radial_35_326)" stroke-linecap="round" stroke-linejoin="round"/>
<path d="M1393.58 688.781L1416.38 739.552L1425.4 759.662L1488.32 873.672" stroke="url(#paint64_radial_35_326)" stroke-linecap="round" stroke-linejoin="round"/>
<path d="M345.413 825.42L312.161 758.509L290.883 715.728L233.04 628.093L168.877 579.96L104.176 540.124" stroke="url(#paint65_radial_35_326)" stroke-linecap="round" stroke-linejoin="round"/>
<path d="M-43.3263 517.207L-15.4192 515.686L1.40968 514.799L33.7582 513.008L62.8896 524.231L108.816 532.248L182.039 530.32L256.886 513.794L331.777 491.518L394.073 537.873L468.014 515.508L540.968 493.422L612.967 471.624L684.055 450.073L747.273 495.238L812.134 536.568L877.991 577.573L918.006 596.289" stroke="url(#paint66_radial_35_326)" stroke-linecap="round" stroke-linejoin="round"/>
<defs>
<radialGradient id="paint0_radial_35_326" cx="0" cy="0" r="1" gradientUnits="userSpaceOnUse" gradientTransform="translate(1363.32 1202.47) rotate(100.984) scale(267.554 125.675)">
<stop stop-color="#5C17E5"/>
<stop offset="0.971875" stop-color="#5C17E5" stop-opacity="0"/>
</radialGradient>
<radialGradient id="paint1_radial_35_326" cx="0" cy="0" r="1" gradientUnits="userSpaceOnUse" gradientTransform="translate(1102 1206.24) rotate(100.984) scale(357.781 169.829)">
<stop stop-color="#5C17E5"/>
<stop offset="0.971875" stop-color="#5C17E5" stop-opacity="0"/>
</radialGradient>
<radialGradient id="paint2_radial_35_326" cx="0" cy="0" r="1" gradientUnits="userSpaceOnUse" gradientTransform="translate(1014.46 1269.1) rotate(100.984) scale(328.825 171.016)">
<stop stop-color="#5C17E5"/>
<stop offset="0.971875" stop-color="#5C17E5" stop-opacity="0"/>
</radialGradient>
<radialGradient id="paint3_radial_35_326" cx="0" cy="0" r="1" gradientUnits="userSpaceOnUse" gradientTransform="translate(1183.18 1169.11) rotate(100.984) scale(361.047 168.862)">
<stop stop-color="#5C17E5"/>
<stop offset="0.971875" stop-color="#5C17E5" stop-opacity="0"/>
</radialGradient>
<radialGradient id="paint4_radial_35_326" cx="0" cy="0" r="1" gradientUnits="userSpaceOnUse" gradientTransform="translate(1082.34 1398.7) rotate(100.984) scale(315.713 499.953)">
<stop stop-color="#5C17E5"/>
<stop offset="0.971875" stop-color="#5C17E5" stop-opacity="0"/>
</radialGradient>
<radialGradient id="paint5_radial_35_326" cx="0" cy="0" r="1" gradientUnits="userSpaceOnUse" gradientTransform="translate(177.495 667.505) rotate(100.984) scale(340.407 1081.53)">
<stop stop-color="#5C17E5"/>
<stop offset="0.971875" stop-color="#5C17E5" stop-opacity="0"/>
</radialGradient>
<radialGradient id="paint6_radial_35_326" cx="0" cy="0" r="1" gradientUnits="userSpaceOnUse" gradientTransform="translate(308.016 1283.92) rotate(100.984) scale(350.576 282.052)">
<stop stop-color="#5C17E5"/>
<stop offset="0.971875" stop-color="#5C17E5" stop-opacity="0"/>
</radialGradient>
<radialGradient id="paint7_radial_35_326" cx="0" cy="0" r="1" gradientUnits="userSpaceOnUse" gradientTransform="translate(1378.97 660.883) rotate(100.984) scale(25.3422 15.5547)">
<stop stop-color="#5C17E5"/>
<stop offset="0.971875" stop-color="#5C17E5" stop-opacity="0"/>
</radialGradient>
<radialGradient id="paint8_radial_35_326" cx="0" cy="0" r="1" gradientUnits="userSpaceOnUse" gradientTransform="translate(886.388 1312.55) rotate(100.984) scale(311.938 214.542)">
<stop stop-color="#5C17E5"/>
<stop offset="0.971875" stop-color="#5C17E5" stop-opacity="0"/>
</radialGradient>
<radialGradient id="paint9_radial_35_326" cx="0" cy="0" r="1" gradientUnits="userSpaceOnUse" gradientTransform="translate(365.577 1173.33) rotate(100.984) scale(465.798 559.372)">
<stop stop-color="#5C17E5"/>
<stop offset="0.971875" stop-color="#5C17E5" stop-opacity="0"/>
</radialGradient>
<radialGradient id="paint10_radial_35_326" cx="0" cy="0" r="1" gradientUnits="userSpaceOnUse" gradientTransform="translate(404.022 853.575) rotate(100.984) scale(380.807 1202.3)">
<stop stop-color="#5C17E5"/>
<stop offset="0.971875" stop-color="#5C17E5" stop-opacity="0"/>
</radialGradient>
<radialGradient id="paint11_radial_35_326" cx="0" cy="0" r="1" gradientUnits="userSpaceOnUse" gradientTransform="translate(731.437 727.897) rotate(100.984) scale(91.2231 72.7522)">
<stop stop-color="#5C17E5"/>
<stop offset="0.971875" stop-color="#5C17E5" stop-opacity="0"/>
</radialGradient>
<radialGradient id="paint12_radial_35_326" cx="0" cy="0" r="1" gradientUnits="userSpaceOnUse" gradientTransform="translate(864.084 717.68) rotate(100.984) scale(237.115 170.185)">
<stop stop-color="#5C17E5"/>
<stop offset="0.971875" stop-color="#5C17E5" stop-opacity="0"/>
</radialGradient>
<radialGradient id="paint13_radial_35_326" cx="0" cy="0" r="1" gradientUnits="userSpaceOnUse" gradientTransform="translate(108.847 1253.35) rotate(100.984) scale(199.102 243.14)">
<stop stop-color="#5C17E5"/>
<stop offset="0.971875" stop-color="#5C17E5" stop-opacity="0"/>
</radialGradient>
<radialGradient id="paint14_radial_35_326" cx="0" cy="0" r="1" gradientUnits="userSpaceOnUse" gradientTransform="translate(3.48245 1373.17) rotate(100.984) scale(108.527 81.895)">
<stop stop-color="#5C17E5"/>
<stop offset="0.971875" stop-color="#5C17E5" stop-opacity="0"/>
</radialGradient>
<radialGradient id="paint15_radial_35_326" cx="0" cy="0" r="1" gradientUnits="userSpaceOnUse" gradientTransform="translate(509.706 1390.18) rotate(100.984) scale(322.037 1195.55)">
<stop stop-color="#5C17E5"/>
<stop offset="0.971875" stop-color="#5C17E5" stop-opacity="0"/>
</radialGradient>
<radialGradient id="paint16_radial_35_326" cx="0" cy="0" r="1" gradientUnits="userSpaceOnUse" gradientTransform="translate(437.909 1815.81) rotate(100.984) scale(54.9008 171.05)">
<stop stop-color="#5C17E5"/>
<stop offset="0.971875" stop-color="#5C17E5" stop-opacity="0"/>
</radialGradient>
<radialGradient id="paint17_radial_35_326" cx="0" cy="0" r="1" gradientUnits="userSpaceOnUse" gradientTransform="translate(1224.49 1108.93) rotate(100.984) scale(380.088 210.301)">
<stop stop-color="#5C17E5"/>
<stop offset="0.971875" stop-color="#5C17E5" stop-opacity="0"/>
</radialGradient>
<radialGradient id="paint18_radial_35_326" cx="0" cy="0" r="1" gradientUnits="userSpaceOnUse" gradientTransform="translate(-94.8552 1226.28) rotate(100.984) scale(94.6282 195.73)">
<stop stop-color="#5C17E5"/>
<stop offset="0.971875" stop-color="#5C17E5" stop-opacity="0"/>
</radialGradient>
<radialGradient id="paint19_radial_35_326" cx="0" cy="0" r="1" gradientUnits="userSpaceOnUse" gradientTransform="translate(426.148 1894.21) rotate(100.984) scale(28.0989 86.2035)">
<stop stop-color="#5C17E5"/>
<stop offset="0.971875" stop-color="#5C17E5" stop-opacity="0"/>
</radialGradient>
<radialGradient id="paint20_radial_35_326" cx="0" cy="0" r="1" gradientUnits="userSpaceOnUse" gradientTransform="translate(-103.026 1201.52) rotate(100.984) scale(72.2509 260.171)">
<stop stop-color="#5C17E5"/>
<stop offset="0.971875" stop-color="#5C17E5" stop-opacity="0"/>
</radialGradient>
<radialGradient id="paint21_radial_35_326" cx="0" cy="0" r="1" gradientUnits="userSpaceOnUse" gradientTransform="translate(927.939 1447) rotate(100.984) scale(407.933 838.643)">
<stop stop-color="#5C17E5"/>
<stop offset="0.971875" stop-color="#5C17E5" stop-opacity="0"/>
</radialGradient>
<radialGradient id="paint22_radial_35_326" cx="0" cy="0" r="1" gradientUnits="userSpaceOnUse" gradientTransform="translate(594.801 788.925) rotate(100.984) scale(352.569 1307.32)">
<stop stop-color="#5C17E5"/>
<stop offset="0.971875" stop-color="#5C17E5" stop-opacity="0"/>
</radialGradient>
<radialGradient id="paint23_radial_35_326" cx="0" cy="0" r="1" gradientUnits="userSpaceOnUse" gradientTransform="translate(1349.71 912.91) rotate(100.984) scale(306.54 714.206)">
<stop stop-color="#5C17E5"/>
<stop offset="0.971875" stop-color="#5C17E5" stop-opacity="0"/>
</radialGradient>
<radialGradient id="paint24_radial_35_326" cx="0" cy="0" r="1" gradientUnits="userSpaceOnUse" gradientTransform="translate(-78.2176 1137.81) rotate(100.984) scale(95.0453 348.478)">
<stop stop-color="#5C17E5"/>
<stop offset="0.971875" stop-color="#5C17E5" stop-opacity="0"/>
</radialGradient>
<radialGradient id="paint25_radial_35_326" cx="0" cy="0" r="1" gradientUnits="userSpaceOnUse" gradientTransform="translate(-73.2312 723.537) rotate(100.984) scale(208.252 777.985)">
<stop stop-color="#5C17E5"/>
<stop offset="0.971875" stop-color="#5C17E5" stop-opacity="0"/>
</radialGradient>
<radialGradient id="paint26_radial_35_326" cx="0" cy="0" r="1" gradientUnits="userSpaceOnUse" gradientTransform="translate(435.278 1811.47) rotate(100.984) scale(54.8541 254.556)">
<stop stop-color="#5C17E5"/>
<stop offset="0.971875" stop-color="#5C17E5" stop-opacity="0"/>
</radialGradient>
<radialGradient id="paint27_radial_35_326" cx="0" cy="0" r="1" gradientUnits="userSpaceOnUse" gradientTransform="translate(450.505 1715.21) rotate(100.984) scale(49.9667 336.756)">
<stop stop-color="#5C17E5"/>
<stop offset="0.971875" stop-color="#5C17E5" stop-opacity="0"/>
</radialGradient>
<radialGradient id="paint28_radial_35_326" cx="0" cy="0" r="1" gradientUnits="userSpaceOnUse" gradientTransform="translate(864.565 919.696) rotate(100.984) scale(14.3853 42.7115)">
<stop stop-color="#5C17E5"/>
<stop offset="0.971875" stop-color="#5C17E5" stop-opacity="0"/>
</radialGradient>
<radialGradient id="paint29_radial_35_326" cx="0" cy="0" r="1" gradientUnits="userSpaceOnUse" gradientTransform="translate(1255.84 1007.7) rotate(100.984) scale(300.958 470.523)">
<stop stop-color="#5C17E5"/>
<stop offset="0.971875" stop-color="#5C17E5" stop-opacity="0"/>
</radialGradient>
<radialGradient id="paint30_radial_35_326" cx="0" cy="0" r="1" gradientUnits="userSpaceOnUse" gradientTransform="translate(-117.688 820.741) rotate(100.984) scale(208.692 738.004)">
<stop stop-color="#5C17E5"/>
<stop offset="0.971875" stop-color="#5C17E5" stop-opacity="0"/>
</radialGradient>
<radialGradient id="paint31_radial_35_326" cx="0" cy="0" r="1" gradientUnits="userSpaceOnUse" gradientTransform="translate(1361.34 880.971) rotate(100.984) scale(191.249 622.507)">
<stop stop-color="#5C17E5"/>
<stop offset="0.971875" stop-color="#5C17E5" stop-opacity="0"/>
</radialGradient>
<radialGradient id="paint32_radial_35_326" cx="0" cy="0" r="1" gradientUnits="userSpaceOnUse" gradientTransform="translate(622.386 1443.83) rotate(100.984) scale(288.24 297.285)">
<stop stop-color="#5C17E5"/>
<stop offset="0.971875" stop-color="#5C17E5" stop-opacity="0"/>
</radialGradient>
<radialGradient id="paint33_radial_35_326" cx="0" cy="0" r="1" gradientUnits="userSpaceOnUse" gradientTransform="translate(-103.064 731.058) rotate(100.984) scale(189.627 653.514)">
<stop stop-color="#5C17E5"/>
<stop offset="0.971875" stop-color="#5C17E5" stop-opacity="0"/>
</radialGradient>
<radialGradient id="paint34_radial_35_326" cx="0" cy="0" r="1" gradientUnits="userSpaceOnUse" gradientTransform="translate(924.493 867.496) rotate(100.984) scale(114.249 142.553)">
<stop stop-color="#5C17E5"/>
<stop offset="0.971875" stop-color="#5C17E5" stop-opacity="0"/>
</radialGradient>
<radialGradient id="paint35_radial_35_326" cx="0" cy="0" r="1" gradientUnits="userSpaceOnUse" gradientTransform="translate(135.689 1288.65) rotate(100.984) scale(295.166 880.93)">
<stop stop-color="#5C17E5"/>
<stop offset="0.971875" stop-color="#5C17E5" stop-opacity="0"/>
</radialGradient>
<radialGradient id="paint36_radial_35_326" cx="0" cy="0" r="1" gradientUnits="userSpaceOnUse" gradientTransform="translate(177.017 581.842) rotate(100.984) scale(230.652 819.424)">
<stop stop-color="#5C17E5"/>
<stop offset="0.971875" stop-color="#5C17E5" stop-opacity="0"/>
</radialGradient>
<radialGradient id="paint37_radial_35_326" cx="0" cy="0" r="1" gradientUnits="userSpaceOnUse" gradientTransform="translate(327.119 691.516) rotate(100.984) scale(119.345 321.999)">
<stop stop-color="#5C17E5"/>
<stop offset="0.971875" stop-color="#5C17E5" stop-opacity="0"/>
</radialGradient>
<radialGradient id="paint38_radial_35_326" cx="0" cy="0" r="1" gradientUnits="userSpaceOnUse" gradientTransform="translate(668.88 1247.73) rotate(100.984) scale(444.301 547.414)">
<stop stop-color="#5C17E5"/>
<stop offset="0.971875" stop-color="#5C17E5" stop-opacity="0"/>
</radialGradient>
<radialGradient id="paint39_radial_35_326" cx="0" cy="0" r="1" gradientUnits="userSpaceOnUse" gradientTransform="translate(480.486 867.966) rotate(100.984) scale(51.8893 140.704)">
<stop stop-color="#5C17E5"/>
<stop offset="0.971875" stop-color="#5C17E5" stop-opacity="0"/>
</radialGradient>
<radialGradient id="paint40_radial_35_326" cx="0" cy="0" r="1" gradientUnits="userSpaceOnUse" gradientTransform="translate(476.477 553.885) rotate(100.984) scale(69.2397 431)">
<stop stop-color="#5C17E5"/>
<stop offset="0.971875" stop-color="#5C17E5" stop-opacity="0"/>
</radialGradient>
<radialGradient id="paint41_radial_35_326" cx="0" cy="0" r="1" gradientUnits="userSpaceOnUse" gradientTransform="translate(468.106 607.525) rotate(100.984) scale(84.436 413.664)">
<stop stop-color="#5C17E5"/>
<stop offset="0.971875" stop-color="#5C17E5" stop-opacity="0"/>
</radialGradient>
<radialGradient id="paint42_radial_35_326" cx="0" cy="0" r="1" gradientUnits="userSpaceOnUse" gradientTransform="translate(510.32 478.788) rotate(100.984) scale(58.9312 379.655)">
<stop stop-color="#5C17E5"/>
<stop offset="0.971875" stop-color="#5C17E5" stop-opacity="0"/>
</radialGradient>
<radialGradient id="paint43_radial_35_326" cx="0" cy="0" r="1" gradientUnits="userSpaceOnUse" gradientTransform="translate(586.068 417.741) rotate(100.984) scale(54.9005 373.039)">
<stop stop-color="#5C17E5"/>
<stop offset="0.971875" stop-color="#5C17E5" stop-opacity="0"/>
</radialGradient>
<radialGradient id="paint44_radial_35_326" cx="0" cy="0" r="1" gradientUnits="userSpaceOnUse" gradientTransform="translate(549.406 486.8) rotate(100.984) scale(88.9066 281.781)">
<stop stop-color="#5C17E5"/>
<stop offset="0.971875" stop-color="#5C17E5" stop-opacity="0"/>
</radialGradient>
<radialGradient id="paint45_radial_35_326" cx="0" cy="0" r="1" gradientUnits="userSpaceOnUse" gradientTransform="translate(1264.12 557.654) rotate(100.984) scale(0.370434 35.7399)">
<stop stop-color="#5C17E5"/>
<stop offset="0.971875" stop-color="#5C17E5" stop-opacity="0"/>
</radialGradient>
<radialGradient id="paint46_radial_35_326" cx="0" cy="0" r="1" gradientUnits="userSpaceOnUse" gradientTransform="translate(621.785 403.227) rotate(100.984) scale(31.5273 269.365)">
<stop stop-color="#5C17E5"/>
<stop offset="0.971875" stop-color="#5C17E5" stop-opacity="0"/>
</radialGradient>
<radialGradient id="paint47_radial_35_326" cx="0" cy="0" r="1" gradientUnits="userSpaceOnUse" gradientTransform="translate(631.559 342.708) rotate(100.984) scale(34.3301 200.768)">
<stop stop-color="#5C17E5"/>
<stop offset="0.971875" stop-color="#5C17E5" stop-opacity="0"/>
</radialGradient>
<radialGradient id="paint48_radial_35_326" cx="0" cy="0" r="1" gradientUnits="userSpaceOnUse" gradientTransform="translate(62.9296 508.447) rotate(100.984) scale(26.7555 87.5434)">
<stop stop-color="#5C17E5"/>
<stop offset="0.971875" stop-color="#5C17E5" stop-opacity="0"/>
</radialGradient>
<radialGradient id="paint49_radial_35_326" cx="0" cy="0" r="1" gradientUnits="userSpaceOnUse" gradientTransform="translate(171.401 691.515) rotate(100.984) scale(275.546 755.357)">
<stop stop-color="#5C17E5"/>
<stop offset="0.971875" stop-color="#5C17E5" stop-opacity="0"/>
</radialGradient>
<radialGradient id="paint50_radial_35_326" cx="0" cy="0" r="1" gradientUnits="userSpaceOnUse" gradientTransform="translate(629.886 341.184) rotate(100.984) scale(30.925 133.02)">
<stop stop-color="#5C17E5"/>
<stop offset="0.971875" stop-color="#5C17E5" stop-opacity="0"/>
</radialGradient>
<radialGradient id="paint51_radial_35_326" cx="0" cy="0" r="1" gradientUnits="userSpaceOnUse" gradientTransform="translate(524.325 1059.09) rotate(100.984) scale(563.948 1496.62)">
<stop stop-color="#5C17E5"/>
<stop offset="0.971875" stop-color="#5C17E5" stop-opacity="0"/>
</radialGradient>
<radialGradient id="paint52_radial_35_326" cx="0" cy="0" r="1" gradientUnits="userSpaceOnUse" gradientTransform="translate(300.248 553.807) rotate(100.984) scale(177.558 699.957)">
<stop stop-color="#5C17E5"/>
<stop offset="0.971875" stop-color="#5C17E5" stop-opacity="0"/>
</radialGradient>
<radialGradient id="paint53_radial_35_326" cx="0" cy="0" r="1" gradientUnits="userSpaceOnUse" gradientTransform="translate(636.969 294.462) rotate(100.984) scale(16.2849 66.1028)">
<stop stop-color="#5C17E5"/>
<stop offset="0.971875" stop-color="#5C17E5" stop-opacity="0"/>
</radialGradient>
<radialGradient id="paint54_radial_35_326" cx="0" cy="0" r="1" gradientUnits="userSpaceOnUse" gradientTransform="translate(-47.3252 502.101) rotate(100.984) scale(4.88774 50.2599)">
<stop stop-color="#5C17E5"/>
<stop offset="0.971875" stop-color="#5C17E5" stop-opacity="0"/>
</radialGradient>
<radialGradient id="paint55_radial_35_326" cx="0" cy="0" r="1" gradientUnits="userSpaceOnUse" gradientTransform="translate(-8.87797 1035.53) rotate(100.984) scale(96.5047 221.225)">
<stop stop-color="#5C17E5"/>
<stop offset="0.971875" stop-color="#5C17E5" stop-opacity="0"/>
</radialGradient>
<radialGradient id="paint56_radial_35_326" cx="0" cy="0" r="1" gradientUnits="userSpaceOnUse" gradientTransform="translate(-68.1079 1074.24) rotate(100.984) scale(115.546 421.264)">
<stop stop-color="#5C17E5"/>
<stop offset="0.971875" stop-color="#5C17E5" stop-opacity="0"/>
</radialGradient>
<radialGradient id="paint57_radial_35_326" cx="0" cy="0" r="1" gradientUnits="userSpaceOnUse" gradientTransform="translate(777.405 728.489) rotate(100.984) scale(127.43 78.706)">
<stop stop-color="#5C17E5"/>
<stop offset="0.971875" stop-color="#5C17E5" stop-opacity="0"/>
</radialGradient>
<radialGradient id="paint58_radial_35_326" cx="0" cy="0" r="1" gradientUnits="userSpaceOnUse" gradientTransform="translate(889.587 838.399) rotate(100.984) scale(178.323 170.015)">
<stop stop-color="#5C17E5"/>
<stop offset="0.971875" stop-color="#5C17E5" stop-opacity="0"/>
</radialGradient>
<radialGradient id="paint59_radial_35_326" cx="0" cy="0" r="1" gradientUnits="userSpaceOnUse" gradientTransform="translate(426.466 671.511) rotate(100.984) scale(88.4666 237.373)">
<stop stop-color="#5C17E5"/>
<stop offset="0.971875" stop-color="#5C17E5" stop-opacity="0"/>
</radialGradient>
<radialGradient id="paint60_radial_35_326" cx="0" cy="0" r="1" gradientUnits="userSpaceOnUse" gradientTransform="translate(1335.66 849.116) rotate(100.984) scale(298.016 678.415)">
<stop stop-color="#5C17E5"/>
<stop offset="0.971875" stop-color="#5C17E5" stop-opacity="0"/>
</radialGradient>
<radialGradient id="paint61_radial_35_326" cx="0" cy="0" r="1" gradientUnits="userSpaceOnUse" gradientTransform="translate(460.297 1060.92) rotate(100.984) scale(1.8762 2.34083)">
<stop stop-color="#5C17E5"/>
<stop offset="0.971875" stop-color="#5C17E5" stop-opacity="0"/>
</radialGradient>
<radialGradient id="paint62_radial_35_326" cx="0" cy="0" r="1" gradientUnits="userSpaceOnUse" gradientTransform="translate(-23.1969 854.516) rotate(100.984) scale(155.32 517.017)">
<stop stop-color="#5C17E5"/>
<stop offset="0.971875" stop-color="#5C17E5" stop-opacity="0"/>
</radialGradient>
<radialGradient id="paint63_radial_35_326" cx="0" cy="0" r="1" gradientUnits="userSpaceOnUse" gradientTransform="translate(1323.73 977.691) rotate(100.984) scale(212.051 603.034)">
<stop stop-color="#5C17E5"/>
<stop offset="0.971875" stop-color="#5C17E5" stop-opacity="0"/>
</radialGradient>
<radialGradient id="paint64_radial_35_326" cx="0" cy="0" r="1" gradientUnits="userSpaceOnUse" gradientTransform="translate(1440.95 781.227) rotate(100.984) scale(81.7256 64.1183)">
<stop stop-color="#5C17E5"/>
<stop offset="0.971875" stop-color="#5C17E5" stop-opacity="0"/>
</radialGradient>
<radialGradient id="paint65_radial_35_326" cx="0" cy="0" r="1" gradientUnits="userSpaceOnUse" gradientTransform="translate(224.794 682.772) rotate(100.984) scale(117.052 145.589)">
<stop stop-color="#5C17E5"/>
<stop offset="0.971875" stop-color="#5C17E5" stop-opacity="0"/>
</radialGradient>
<radialGradient id="paint66_radial_35_326" cx="0" cy="0" r="1" gradientUnits="userSpaceOnUse" gradientTransform="translate(446.768 508.174) rotate(100.984) scale(102.249 479.394)">
<stop stop-color="#5C17E5"/>
<stop offset="0.971875" stop-color="#5C17E5" stop-opacity="0"/>
</radialGradient>
</defs>
</svg>
